<svg xmlns="http://www.w3.org/2000/svg" width="752.381" height="880" viewBox="0 0 752.381 880" xmlns:xlink="http://www.w3.org/1999/xlink" role="img" artist="Katerina Limpitsouni" source="https://undraw.co/"><g transform="translate(-605.016 -139.999)"><g transform="translate(903.596 139.999)"><path d="M362.812,430.635l418.264-90.227,5.436-1.17A15.048,15.048,0,0,1,803.2,360.611L637.126,697.861a15.1,15.1,0,0,1-11.214,8.211,14.947,14.947,0,0,1-13.174-4.518L497.393,579.931a8.755,8.755,0,0,0-6.434-2.81,9.057,9.057,0,0,0-8.062,4.689l-23.626,43.7a14.7,14.7,0,0,1-16.459,7.543l-.118-.026a14.721,14.721,0,0,1-11.668-13.981l-4.733-100.876a9.194,9.194,0,0,0-.924-3.625A9.788,9.788,0,0,0,423,511.617L356.457,456.99a15.059,15.059,0,0,1,6.355-26.355Zm-2.555,21.711L426.8,506.972a14.844,14.844,0,0,1,2.342,2.366L781.831,349.387a5.237,5.237,0,0,1,.968-.34,6.025,6.025,0,0,1,5.021,10.725L497.833,572.788a14.426,14.426,0,0,1,3.926,2.994L617.107,697.406a9.027,9.027,0,0,0,14.634-2.216L797.807,357.945a9.051,9.051,0,0,0-10.013-12.815l-5.561,1.2L364.1,436.527a9.045,9.045,0,0,0-3.841,15.819Z" transform="translate(-350.952 -338.895)" fill="#6c63ff"/><path d="M362.812,430.635l418.264-90.227,5.436-1.17A15.048,15.048,0,0,1,803.2,360.611L637.126,697.861a15.1,15.1,0,0,1-11.214,8.211,14.947,14.947,0,0,1-13.174-4.518L497.393,579.931a8.755,8.755,0,0,0-6.434-2.81,9.057,9.057,0,0,0-8.062,4.689l-23.626,43.7a14.7,14.7,0,0,1-16.459,7.543l-.118-.026a14.721,14.721,0,0,1-11.668-13.981l-4.733-100.876a9.194,9.194,0,0,0-.924-3.625A9.788,9.788,0,0,0,423,511.617L356.457,456.99a15.059,15.059,0,0,1,6.355-26.355Zm-2.555,21.711L426.8,506.972a14.844,14.844,0,0,1,2.342,2.366,13.973,13.973,0,0,1,1.6,2.508,14.429,14.429,0,0,1,1.09,2.86l-.007.029a14.234,14.234,0,0,1,.473,3.155l4.731,100.876a8.738,8.738,0,0,0,6.988,8.387l.059.013a8.758,8.758,0,0,0,9.9-4.5l23.632-43.727a15.01,15.01,0,0,1,12.333-7.839l.028.007c.344-.016.686-.033,1.022-.021a14.639,14.639,0,0,1,6.835,1.7,14.427,14.427,0,0,1,3.926,2.994l115.35,121.624a9.027,9.027,0,0,0,14.634-2.216L797.807,357.945a9.051,9.051,0,0,0-10.013-12.815l-5.561,1.2L364.1,436.527a9.045,9.045,0,0,0-3.841,15.819Z" transform="translate(-350.952 -338.895)" fill="#3f3d56"/><path d="M355.747,503.286l2.485,5.479,1.535-.677.007-.029,352.408-159.8-294.267,216.2-.028-.007-.78.6,3.548,4.853,5.116-3.766L715.759,353.122a6.025,6.025,0,0,0-5.016-10.725,5.249,5.249,0,0,0-.968.34L357.082,502.687Z" transform="translate(-278.889 -332.245)" fill="#3f3d56"/></g><path d="M568.741,658.348c25.844-29.409,62.4-41.328,95.448-47.579,41.051-7.76,82.7-7.719,123.778-15.213,33.168-6.05,68.609-17.73,95.584-45.1a85.493,85.493,0,0,0,23.3-40.711,80.014,80.014,0,0,0-4.792-48.307c-7.306-17.454-18.963-31.357-31.22-42.746a187.323,187.323,0,0,0-47.351-31.634c-36.433-17.361-74.744-26.4-112.063-39.724-18.3-6.534-36.79-13.7-53.785-24.922-14.394-9.509-30.082-22.325-38.093-41.384-16.527-39.324,22.9-62.76,45.243-71.638A290.894,290.894,0,0,1,711.552,196c3.369-.723,1.94-7.448-1.418-6.728a279.76,279.76,0,0,0-49.1,14.337c-13.473,5.6-27.37,12.954-37.957,25.613a53.316,53.316,0,0,0-12.046,41.686c2.8,18.865,14.987,33.406,26.432,43.937,15.132,13.925,32.387,23.02,49.88,30.432,18.429,7.808,37.239,13.892,56.05,19.861,37.584,11.926,76.854,22.554,110.782,47.931,23.734,17.753,55.975,51.033,48.08,92.3-3.5,18.32-14.147,32.633-25.631,43.165a149.236,149.236,0,0,1-45.9,27.916c-75.185,30.258-157.931,8.615-231.177,49.716-12.977,7.28-33.722,26.318-33.722,26.318S563.741,664.038,568.741,658.348Z" transform="translate(245.748 226.043)" fill="#d6d6e3"/><circle cx="92.086" cy="92.086" r="92.086" transform="translate(1154.348 415.267)" fill="#6c63ff"/><path d="M649.134,268.851a10.241,10.241,0,0,1-8.194-4.1l-25.122-33.5a10.243,10.243,0,0,1,16.39-12.292l16.436,21.918,42.214-63.32a10.246,10.246,0,0,1,17.052,11.364l-50.245,75.367a10.25,10.25,0,0,1-8.239,4.558Z" transform="translate(584.732 286.422)" fill="#fff"/><path d="M19.345,198.768a10.745,10.745,0,0,1-.789-10.206l12.372-27.6a92.535,92.535,0,1,1,34.985,19.486L34.341,201.82a10.648,10.648,0,0,1-15-3.052ZM17.3,65.967a79.254,79.254,0,0,0,25.49,88.176l3.9,3.108-13.311,29.7,30.545-20.679,3.015,1.015A79.276,79.276,0,1,0,92.157,12.86h-.046A79.249,79.249,0,0,0,17.3,65.967Zm98.437,21.9a12.859,12.859,0,1,1,12.858,12.859A12.857,12.857,0,0,1,115.733,87.871Zm-36.435,0a12.859,12.859,0,1,1,12.859,12.859A12.859,12.859,0,0,1,79.3,87.871Zm-36.434,0a12.859,12.859,0,1,1,12.859,12.859A12.859,12.859,0,0,1,42.864,87.871Z" transform="translate(605.016 816.313)" fill="#3f3d56"/></g></svg>